<?xml version="1.0" encoding="iso-8859-1"?>
<!-- Generator: Adobe Illustrator 19.0.0, SVG Export Plug-In . SVG Version: 6.00 Build 0)  -->
<svg version="1.1" id="Layer_1" xmlns="http://www.w3.org/2000/svg" xmlns:xlink="http://www.w3.org/1999/xlink" x="0px" y="0px"
	 viewBox="0 0 512 512" style="enable-background:new 0 0 512 512;" xml:space="preserve">
<g transform="translate(1 1)">
	<path style="fill:#E2E3E5;" d="M456.461,199.348H332.913V75.8c0-30.052-25.6-54.539-55.652-54.539S221.609,45.748,221.609,75.8
		v123.548v111.304V434.2c0,30.052,25.6,54.539,55.652,54.539s55.652-24.487,55.652-54.539V310.652h123.548
		c30.052,0,54.539-25.6,54.539-55.652S486.513,199.348,456.461,199.348"/>
	<path style="fill:#FFFFFF;" d="M64.67,310.652h123.548V434.2c0,30.052,25.6,54.539,55.652,54.539s55.652-24.487,55.652-54.539
		V310.652V199.348V75.8c0-30.052-25.6-54.539-55.652-54.539S188.217,45.748,188.217,75.8v123.548H64.67
		c-30.052,0-54.539,25.6-54.539,55.652S34.617,310.652,64.67,310.652"/>
	<path style="fill:#CCCCCC;" d="M423.07,199.348H299.522V75.8c0-30.052-25.6-54.539-55.652-54.539S188.217,45.748,188.217,75.8
		v123.548v111.304V434.2c0,30.052,25.6,54.539,55.652,54.539s55.652-24.487,55.652-54.539V310.652H423.07
		c30.052,0,54.539-25.6,54.539-55.652S453.122,199.348,423.07,199.348"/>
	<path style="fill:#E2E3E5;" d="M389.678,199.348H266.13V75.8c0-30.052-3.339-54.539-33.391-54.539S177.087,45.748,177.087,75.8
		v123.548H99.174c-30.052,0-54.539,25.6-54.539,55.652s24.487,55.652,54.539,55.652h77.913V434.2
		c0,30.052,25.6,54.539,55.652,54.539s33.391-24.487,33.391-54.539V310.652h123.548c30.052,0,54.539-25.6,54.539-55.652
		S419.73,199.348,389.678,199.348"/>
	<path style="fill:#B6B6B6;" d="M243.87,499.87c-36.73,0-66.783-30.052-66.783-65.67V321.783H64.67C29.052,321.783-1,291.73-1,255
		s30.052-66.783,65.67-66.783h112.417V75.8c0-35.617,30.052-65.67,66.783-65.67s66.783,30.052,66.783,65.67v112.417H423.07
		c36.73,0,65.67,30.052,65.67,66.783s-30.052,66.783-65.67,66.783H310.652V434.2C310.652,469.817,280.6,499.87,243.87,499.87z
		 M64.67,210.478c-23.374,0-43.409,20.035-43.409,44.522s20.035,44.522,43.409,44.522h123.548c6.678,0,11.13,4.452,11.13,11.13
		V434.2c0,23.374,20.035,43.409,44.522,43.409s44.522-20.035,44.522-43.409V310.652c0-6.678,4.452-11.13,11.13-11.13H423.07
		c23.374,0,43.409-20.035,43.409-44.522s-20.035-44.522-43.409-44.522H299.522c-6.678,0-11.13-4.452-11.13-11.13V75.8
		c0-23.374-20.035-43.409-44.522-43.409S199.348,52.426,199.348,75.8v123.548c0,6.678-4.452,11.13-11.13,11.13H64.67z"/>
</g>
<g>
</g>
<g>
</g>
<g>
</g>
<g>
</g>
<g>
</g>
<g>
</g>
<g>
</g>
<g>
</g>
<g>
</g>
<g>
</g>
<g>
</g>
<g>
</g>
<g>
</g>
<g>
</g>
<g>
</g>
</svg>
